<?xml version="1.0" encoding="UTF-8"?> <svg xmlns="http://www.w3.org/2000/svg" width="1240" height="286" viewBox="0 0 1240 286" fill="none"><path d="M1056.84 98.26L1024.79 134.17V98.26H1001.61V188.92H1024.79V150.76L1059.09 188.92H1089.04L1046.85 141.42L1085.98 98.26H1056.84Z" fill="#EF3124"></path><path d="M960.72 132.08H928.68V98.26H905.49V188.92H928.68V153.17H960.72V188.92H983.91V98.26H960.72V132.08Z" fill="#EF3124"></path><path d="M287.67 147.38C287.12 164.28 284.93 167.66 275.44 167.66V188.92H278.98C302.67 188.92 308.37 176.68 309.25 149.47L310.22 119.36H332.43V188.92H355.62V98.26H289.28L287.67 147.38Z" fill="#EF3124"></path><path d="M411.48 168.95H396.51V145.92H411.48C419.53 145.92 424.36 149.47 424.36 157.04C424.36 165.25 419.69 168.95 411.48 168.95ZM413.25 125.8H396.51V98.26H373.32V188.92H413.58C438.86 188.92 447.87 172.49 447.87 157.04C447.87 137.07 435.31 125.8 413.25 125.8Z" fill="#EF3124"></path><path d="M523.39 169.11V117.91C536.27 119.68 544.32 129.34 544.32 143.51C544.32 157.68 536.27 167.34 523.39 169.11ZM500.2 169.11C487.32 167.34 479.27 157.68 479.27 143.51C479.27 129.34 487.32 119.68 500.2 117.91V169.11ZM523.39 96.17V62.52H500.2V96.17C473.64 98.43 455.76 117.26 455.76 143.51C455.76 169.92 473.64 188.76 500.2 191.01V225.15H523.39V191.01C549.96 188.92 567.83 169.92 567.83 143.51C567.83 117.1 549.96 98.26 523.39 96.17Z" fill="#EF3124"></path><path d="M631.6 155.1C631.6 165.57 624.19 171.53 614.53 171.53C606.15 171.53 599.55 168.47 599.55 159.45C599.55 150.59 606.8 149.15 613.08 149.15H631.6V155.1ZM654.78 161.06V130.63C654.78 108.41 640.61 94.3999 616.78 94.3999C592.15 94.3999 579.1 109.21 577.98 124.67H601.49C602.29 121.29 605.83 115.49 616.78 115.49C625.8 115.49 631.6 119.68 631.6 130.63H608.57C587.96 130.63 575.72 141.42 575.72 159.45C575.72 178.29 589.11 191.17 608.41 191.17C622.56 191.17 630.42 184.48 633.85 179.42C636.91 185.54 643.67 188.92 652.53 188.92H660.58V167.99C656.39 167.99 654.78 166.05 654.78 161.06Z" fill="#EF3124"></path><path d="M753.01 166.05H728.21V133.2H753.01C765.89 133.2 773.13 139.16 773.13 149.63C773.13 160.42 765.89 166.05 753.01 166.05ZM754.13 111.14H728.21V85.54H788.27V62.52H703.89V188.92H754.13C781.99 188.92 797.93 175.07 797.93 149.63C797.93 125.64 781.99 111.14 754.13 111.14Z" fill="#EF3124"></path><path d="M863.47 155.1C863.47 165.57 856.06 171.53 846.4 171.53C838.03 171.53 831.42 168.47 831.42 159.45C831.42 150.59 838.67 149.15 844.95 149.15H863.47V155.1ZM886.65 161.06V130.63C886.65 108.41 872.48 94.3999 848.65 94.3999C824.02 94.3999 810.97 109.21 809.85 124.67H833.35C834.16 121.29 837.7 115.49 848.65 115.49C857.67 115.49 863.47 119.68 863.47 130.63H840.44C819.83 130.63 807.59 141.42 807.59 159.45C807.59 178.29 820.98 191.17 840.28 191.17C854.43 191.17 862.29 184.48 865.72 179.42C868.78 185.54 875.54 188.92 884.4 188.92H892.45V167.99C888.26 167.99 886.65 166.05 886.65 161.06Z" fill="#EF3124"></path><path d="M273.98 249.68H150V223.92H273.98V249.68Z" fill="#EF3124"></path><path d="M194.28 141.1L211.67 89.41H212.31L228.74 141.1H194.28ZM234.53 79.87C230.99 69.32 226.92 61 212.96 61C199 61 194.66 69.29 190.94 79.87L152.58 188.92H178.02L186.87 162.99H235.82L244.04 188.92H271.09L234.53 79.87Z" fill="#EF3124"></path></svg> 